<svg width="32" height="32" viewBox="0 0 32 32" fill="none" xmlns="http://www.w3.org/2000/svg">
<path d="M19.2647 7.15148L24.687 4.04335L23.4066 10.1608L23.2936 10.7009L23.8422 10.7603L30.0559 11.433L25.4243 15.6295L25.0153 16L25.4243 16.3705L30.0559 20.567L23.8422 21.2397L23.2936 21.2991L23.4066 21.8392L24.687 27.9567L19.2647 24.8485L18.7859 24.5741L18.5599 25.0775L16 30.7792L13.4401 25.0775L13.2141 24.5741L12.7353 24.8485L7.31298 27.9567L8.59339 21.8392L8.70644 21.2991L8.15781 21.2397L1.94411 20.567L6.57572 16.3705L6.98467 16L6.57572 15.6295L1.94411 11.433L8.15781 10.7603L8.70644 10.7009L8.59339 10.1608L7.31298 4.04335L12.7353 7.15148L13.2141 7.42591L13.4401 6.92248L16 1.22076L18.5599 6.92248L18.7859 7.42591L19.2647 7.15148Z" fill="#F2F2F2" stroke="#111111"/>
</svg>
