<svg width="32" height="32" viewBox="0 0 32 32" fill="none" xmlns="http://www.w3.org/2000/svg">
<path d="M19.1403 6.93456L25.0457 3.54953L23.6512 10.212L23.5947 10.482L23.869 10.5117L30.6363 11.2443L25.592 15.8147L25.3876 15.9999L25.592 16.1852L30.6363 20.7556L23.869 21.4882L23.5947 21.5179L23.6512 21.7879L25.0457 28.4504L19.1403 25.0653L18.9009 24.9281L18.7879 25.1798L15.9999 31.3895L13.212 25.1798L13.099 24.9281L12.8596 25.0653L6.95418 28.4504L8.34866 21.7879L8.40519 21.5179L8.13087 21.4882L1.3636 20.7556L6.40784 16.1852L6.61231 15.9999L6.40784 15.8147L1.3636 11.2443L8.13087 10.5117L8.40519 10.482L8.34866 10.212L6.95418 3.54953L12.8596 6.93456L13.099 7.07177L13.212 6.82006L15.9999 0.610383L18.7879 6.82006L18.9009 7.07177L19.1403 6.93456Z" fill="white" stroke="#111111" stroke-width="0.5"/>
<path d="M14.75 16.5C14.75 17.7001 14.4252 18.7754 13.9133 19.5433C13.4002 20.3129 12.7188 20.75 12 20.75C11.2812 20.75 10.5998 20.3129 10.0867 19.5433C9.57476 18.7754 9.25 17.7001 9.25 16.5C9.25 15.2998 9.57476 14.2246 10.0867 13.4567C10.5998 12.687 11.2812 12.25 12 12.25C12.7188 12.25 13.4002 12.687 13.9133 13.4567C14.4252 14.2246 14.75 15.2998 14.75 16.5Z" fill="white" stroke="#111111" stroke-width="0.5"/>
<circle cx="11.2376" cy="17.6563" r="1.94447" transform="rotate(-120 11.2376 17.6563)" fill="#111111"/>
<path d="M22.75 16.5C22.75 17.7001 22.4252 18.7754 21.9133 19.5433C21.4002 20.3129 20.7188 20.75 20 20.75C19.2812 20.75 18.5998 20.3129 18.0867 19.5433C17.5748 18.7754 17.25 17.7001 17.25 16.5C17.25 15.2998 17.5748 14.2246 18.0867 13.4567C18.5998 12.687 19.2812 12.25 20 12.25C20.7188 12.25 21.4002 12.687 21.9133 13.4567C22.4252 14.2246 22.75 15.2998 22.75 16.5Z" fill="white" stroke="#111111" stroke-width="0.5"/>
<circle cx="19.2247" cy="17.4336" r="1.94447" transform="rotate(-120 19.2247 17.4336)" fill="#111111"/>
</svg>
