<svg width="32" height="32" viewBox="0 0 32 32" fill="none" xmlns="http://www.w3.org/2000/svg">
<path d="M19.2647 7.15148L24.687 4.04335L23.4066 10.1608L23.2936 10.7009L23.8422 10.7603L30.0559 11.433L25.4243 15.6295L25.0153 16L25.4243 16.3705L30.0559 20.567L23.8422 21.2397L23.2936 21.2991L23.4066 21.8392L24.687 27.9567L19.2647 24.8485L18.7859 24.5741L18.5599 25.0775L16 30.7792L13.4401 25.0775L13.2141 24.5741L12.7353 24.8485L7.31298 27.9567L8.59339 21.8392L8.70644 21.2991L8.15781 21.2397L1.94411 20.567L6.57572 16.3705L6.98467 16L6.57572 15.6295L1.94411 11.433L8.15781 10.7603L8.70644 10.7009L8.59339 10.1608L7.31298 4.04335L12.7353 7.15148L13.2141 7.42591L13.4401 6.92248L16 1.22076L18.5599 6.92248L18.7859 7.42591L19.2647 7.15148Z" fill="#F2F2F2" stroke="#111111"/>
<path d="M14.75 16.5C14.75 17.7002 14.4252 18.7754 13.9133 19.5433C13.4002 20.3129 12.7188 20.75 12 20.75C11.2812 20.75 10.5998 20.3129 10.0867 19.5433C9.57476 18.7754 9.25 17.7002 9.25 16.5C9.25 15.2998 9.57476 14.2246 10.0867 13.4567C10.5998 12.6871 11.2812 12.25 12 12.25C12.7188 12.25 13.4002 12.6871 13.9133 13.4567C14.4252 14.2246 14.75 15.2998 14.75 16.5Z" fill="#F2F2F2" stroke="#111111" stroke-width="0.5"/>
<circle cx="11.6562" cy="17.6563" r="1.94448" transform="rotate(-120 11.6562 17.6563)" fill="#111111"/>
<path d="M22.75 16.5C22.75 17.7002 22.4252 18.7754 21.9133 19.5433C21.4002 20.3129 20.7188 20.75 20 20.75C19.2812 20.75 18.5998 20.3129 18.0867 19.5433C17.5748 18.7754 17.25 17.7002 17.25 16.5C17.25 15.2998 17.5748 14.2246 18.0867 13.4567C18.5998 12.6871 19.2812 12.25 20 12.25C20.7188 12.25 21.4002 12.6871 21.9133 13.4567C22.4252 14.2246 22.75 15.2998 22.75 16.5Z" fill="#F2F2F2" stroke="#111111" stroke-width="0.5"/>
<circle cx="19.434" cy="17.4339" r="1.94448" transform="rotate(-120 19.434 17.4339)" fill="#111111"/>
</svg>
